# xmcd
#
# Track frame offsets:
#  150
#  13132
#  26346
#  37281
#  49543
#  63358
#  78636
#  89174
#  102373
#  115025
#  125450
#  141110
#  153087
#  166526
#  180745
#  193154
#  206077
#  221143
#  242352
#  256842
#
# Disc length: 3721 seconds
#
# Revision: 0
# Processed by: cddbd v1.5.1PL2 Copyright (c) Steve Scherf et al.
# Submitted via: Collectorz.com_Music_Collector 6.11
#
DISCID=140e8714
DTITLE=Various Artist - Confessing: Deep Soul from New Orleans
DYEAR=2006
DGENRE=Blues - Soul
TTITLE0=Betty Harris - I Can't Last Much Longer
TTITLE1=Joe Haywood - Say You Will
TTITLE2=Diamond Joe - Don't Set Me Back
TTITLE3=Little Johnny Williams - A House Ain't A Home
TTITLE4=Richard Caiton - Without Your Love
TTITLE5=Zilla Mayes - I Love You Still
TTITLE6=Ray Algere - You're Drivin' Me Crazy
TTITLE7=Eldridge Holmes - Now, That I've Lost You
TTITLE8=CP Love - You Call The Shots
TTITLE9=Calvin Lee - Love Is Like Fire
TTITLE10=Marilyn Barbarin - Believe Me
TTITLE11=David Robinson - I Care For You
TTITLE12=Earl King - A Part Of Me
TTITLE13=Tony Owens - Confessin' A Feeling
TTITLE14=James K Nine - Counting Teardrops
TTITLE15=Inell Young - His Love For Me
TTITLE16=Ernie K Doe - You Got To Love Me
TTITLE17=Herculoids - When Something Is Wrong With My Baby
TTITLE18=Philharmonics - Will You Marry Me Girl
TTITLE19=God's Gift To Women - Stop To Think It Over
EXTD=
EXTT0=
EXTT1=
EXTT2=
EXTT3=
EXTT4=
EXTT5=
EXTT6=
EXTT7=
EXTT8=
EXTT9=
EXTT10=
EXTT11=
EXTT12=
EXTT13=
EXTT14=
EXTT15=
EXTT16=
EXTT17=
EXTT18=
EXTT19=
PLAYORDER=
